<svg width="16" height="17" viewBox="0 0 16 17" fill="none" xmlns="http://www.w3.org/2000/svg">
<path d="M5.94072 14.08C5.81405 14.08 5.68738 14.0333 5.58738 13.9333C5.39405 13.74 5.39405 13.42 5.58738 13.2267L9.93405 8.88C10.254 8.56 10.254 8.04 9.93405 7.72L5.58738 3.37333C5.39405 3.18 5.39405 2.86 5.58738 2.66667C5.78072 2.47333 6.10072 2.47333 6.29405 2.66667L10.6407 7.01333C10.9807 7.35333 11.174 7.81333 11.174 8.3C11.174 8.78667 10.9874 9.24667 10.6407 9.58667L6.29405 13.9333C6.19405 14.0267 6.06738 14.08 5.94072 14.08Z" fill="#363636"/>
</svg>
