<svg width="18" height="18" viewBox="0 0 18 18" fill="none" xmlns="http://www.w3.org/2000/svg">
<path d="M16.3487 13.6652C16.3487 13.9305 16.2898 14.2032 16.1645 14.4685C16.0392 14.7338 15.8771 14.9844 15.6633 15.2203C15.3022 15.6182 14.9042 15.9057 14.4546 16.0899C14.0124 16.2742 13.5334 16.37 13.0175 16.37C12.2658 16.37 11.4624 16.1931 10.6149 15.832C9.76733 15.4708 8.91978 14.9844 8.0796 14.3727C7.23205 13.7536 6.42872 13.0682 5.66224 12.3091C4.90314 11.5426 4.21773 10.7393 3.60602 9.89914C3.00168 9.05896 2.51526 8.21878 2.1615 7.38597C1.80774 6.54579 1.63086 5.74246 1.63086 4.97598C1.63086 4.47482 1.7193 3.99577 1.89618 3.55357C2.07306 3.104 2.35312 2.69128 2.74373 2.32278C3.21541 1.85847 3.73131 1.63 4.27669 1.63C4.48305 1.63 4.68941 1.67422 4.87366 1.76266C5.06528 1.8511 5.23479 1.98376 5.36745 2.17538L7.07728 4.58537C7.20994 4.76962 7.30575 4.93913 7.37208 5.10127C7.43841 5.25604 7.47526 5.41081 7.47526 5.55084C7.47526 5.72772 7.42367 5.9046 7.32049 6.07411C7.22468 6.24362 7.08465 6.4205 6.90777 6.59738L6.34765 7.17961C6.26658 7.26068 6.22973 7.35649 6.22973 7.47441C6.22973 7.53337 6.2371 7.58496 6.25184 7.64392C6.27395 7.70288 6.29606 7.7471 6.3108 7.79132C6.44346 8.03453 6.67193 8.35144 6.99621 8.73468C7.32786 9.11792 7.68162 9.50853 8.06486 9.89914C8.46284 10.2897 8.84608 10.6509 9.23669 10.9825C9.61993 11.3068 9.93684 11.5279 10.1874 11.6606C10.2243 11.6753 10.2685 11.6974 10.3201 11.7195C10.379 11.7416 10.438 11.749 10.5043 11.749C10.6296 11.749 10.7254 11.7048 10.8065 11.6237L11.3666 11.071C11.5509 10.8867 11.7277 10.7467 11.8973 10.6582C12.0668 10.5551 12.2363 10.5035 12.4205 10.5035C12.5606 10.5035 12.708 10.533 12.8701 10.5993C13.0322 10.6656 13.2017 10.7614 13.386 10.8867L15.8255 12.6187C16.0171 12.7513 16.1497 12.9061 16.2308 13.0903C16.3045 13.2746 16.3487 13.4588 16.3487 13.6652Z" stroke="#363636" stroke-width="1.02046" stroke-miterlimit="10"/>
</svg>
