<svg width="19" height="18" viewBox="0 0 19 18" fill="none" xmlns="http://www.w3.org/2000/svg">
<path d="M17.311 13.7475C17.311 14.0175 17.251 14.295 17.1235 14.565C16.996 14.835 16.831 15.09 16.6135 15.33C16.246 15.735 15.841 16.0275 15.3835 16.215C14.9335 16.4025 14.446 16.5 13.921 16.5C13.156 16.5 12.3385 16.32 11.476 15.9525C10.6135 15.585 9.751 15.09 8.896 14.4675C8.0335 13.8375 7.216 13.14 6.436 12.3675C5.6635 11.5875 4.966 10.77 4.3435 9.915C3.7285 9.06 3.2335 8.205 2.8735 7.3575C2.5135 6.5025 2.3335 5.685 2.3335 4.905C2.3335 4.395 2.4235 3.9075 2.6035 3.4575C2.7835 3 3.0685 2.58 3.466 2.205C3.946 1.7325 4.471 1.5 5.026 1.5C5.236 1.5 5.446 1.545 5.6335 1.635C5.8285 1.725 6.001 1.86 6.136 2.055L7.876 4.5075C8.011 4.695 8.1085 4.8675 8.176 5.0325C8.2435 5.19 8.281 5.3475 8.281 5.49C8.281 5.67 8.2285 5.85 8.1235 6.0225C8.026 6.195 7.8835 6.375 7.7035 6.555L7.1335 7.1475C7.051 7.23 7.0135 7.3275 7.0135 7.4475C7.0135 7.5075 7.021 7.56 7.036 7.62C7.0585 7.68 7.081 7.725 7.096 7.77C7.231 8.0175 7.4635 8.34 7.7935 8.73C8.131 9.12 8.491 9.5175 8.881 9.915C9.286 10.3125 9.676 10.68 10.0735 11.0175C10.4635 11.3475 10.786 11.5725 11.041 11.7075C11.0785 11.7225 11.1235 11.745 11.176 11.7675C11.236 11.79 11.296 11.7975 11.3635 11.7975C11.491 11.7975 11.5885 11.7525 11.671 11.67L12.241 11.1075C12.4285 10.92 12.6085 10.7775 12.781 10.6875C12.9535 10.5825 13.126 10.53 13.3135 10.53C13.456 10.53 13.606 10.56 13.771 10.6275C13.936 10.695 14.1085 10.7925 14.296 10.92L16.7785 12.6825C16.9735 12.8175 17.1085 12.975 17.191 13.1625C17.266 13.35 17.311 13.5375 17.311 13.7475Z" fill="white"/>
</svg>
