<svg width="25" height="24" viewBox="0 0 25 24" fill="none" xmlns="http://www.w3.org/2000/svg">
<path d="M17.25 2H7.25C4.49 2 2.25 4.23 2.25 6.98V12.96V13.96C2.25 16.71 4.49 18.94 7.25 18.94H8.75C9.02 18.94 9.38 19.12 9.55 19.34L11.05 21.33C11.71 22.21 12.79 22.21 13.45 21.33L14.95 19.34C15.14 19.09 15.44 18.94 15.75 18.94H17.25C20.01 18.94 22.25 16.71 22.25 13.96V6.98C22.25 4.23 20.01 2 17.25 2ZM8.25 12C7.69 12 7.25 11.55 7.25 11C7.25 10.45 7.7 10 8.25 10C8.8 10 9.25 10.45 9.25 11C9.25 11.55 8.81 12 8.25 12ZM12.25 12C11.69 12 11.25 11.55 11.25 11C11.25 10.45 11.7 10 12.25 10C12.8 10 13.25 10.45 13.25 11C13.25 11.55 12.81 12 12.25 12ZM16.25 12C15.69 12 15.25 11.55 15.25 11C15.25 10.45 15.7 10 16.25 10C16.8 10 17.25 10.45 17.25 11C17.25 11.55 16.81 12 16.25 12Z" fill="#087C7C"/>
</svg>
