<svg width="20" height="20" viewBox="0 0 20 20" fill="none" xmlns="http://www.w3.org/2000/svg">
<path d="M7.5 14.8004C7.41667 14.8004 7.34167 14.7837 7.25833 14.7504C7.025 14.6587 6.875 14.4254 6.875 14.1754V9.17541C6.875 8.83375 7.15833 8.55042 7.5 8.55042C7.84167 8.55042 8.125 8.83375 8.125 9.17541V12.6671L8.725 12.0671C8.96667 11.8254 9.36667 11.8254 9.60833 12.0671C9.85 12.3087 9.85 12.7087 9.60833 12.9504L7.94167 14.6171C7.825 14.7337 7.65833 14.8004 7.5 14.8004Z" fill="#363636"/>
<path d="M7.50003 14.8004C7.3417 14.8004 7.18337 14.7421 7.05837 14.6171L5.3917 12.9504C5.15003 12.7088 5.15003 12.3088 5.3917 12.0671C5.63337 11.8254 6.03337 11.8254 6.27503 12.0671L7.9417 13.7338C8.18337 13.9754 8.18337 14.3754 7.9417 14.6171C7.8167 14.7421 7.65837 14.8004 7.50003 14.8004Z" fill="#363636"/>
<path d="M12.4998 18.9672H7.49984C2.97484 18.9672 1.0415 17.0339 1.0415 12.5089V7.50887C1.0415 2.98387 2.97484 1.05054 7.49984 1.05054H11.6665C12.0082 1.05054 12.2915 1.33387 12.2915 1.67554C12.2915 2.0172 12.0082 2.30054 11.6665 2.30054H7.49984C3.65817 2.30054 2.2915 3.6672 2.2915 7.50887V12.5089C2.2915 16.3505 3.65817 17.7172 7.49984 17.7172H12.4998C16.3415 17.7172 17.7082 16.3505 17.7082 12.5089V8.3422C17.7082 8.00054 17.9915 7.7172 18.3332 7.7172C18.6748 7.7172 18.9582 8.00054 18.9582 8.3422V12.5089C18.9582 17.0339 17.0248 18.9672 12.4998 18.9672Z" fill="#363636"/>
<path d="M18.3337 8.96707H15.0003C12.1503 8.96707 11.042 7.85874 11.042 5.00874V1.67541C11.042 1.42541 11.192 1.19207 11.4253 1.10041C11.6587 1.00041 11.9253 1.05874 12.1087 1.23374L18.7753 7.90041C18.9503 8.07541 19.0087 8.35041 18.9087 8.58374C18.8087 8.81707 18.5837 8.96707 18.3337 8.96707ZM12.292 3.18374V5.00874C12.292 7.15874 12.8503 7.71707 15.0003 7.71707H16.8253L12.292 3.18374Z" fill="#363636"/>
</svg>
