<svg width="18" height="18" viewBox="0 0 18 18" fill="none" xmlns="http://www.w3.org/2000/svg">
<path d="M15.75 16.5H2.25C1.9425 16.5 1.6875 16.245 1.6875 15.9375C1.6875 15.63 1.9425 15.375 2.25 15.375H15.75C16.0575 15.375 16.3125 15.63 16.3125 15.9375C16.3125 16.245 16.0575 16.5 15.75 16.5Z" fill="white"/>
<path d="M14.2649 2.61C12.8099 1.155 11.3849 1.1175 9.89243 2.61L8.98493 3.5175C8.90993 3.5925 8.87993 3.7125 8.90993 3.8175C9.47993 5.805 11.0699 7.395 13.0574 7.965C13.0874 7.9725 13.1174 7.98 13.1474 7.98C13.2299 7.98 13.3049 7.95 13.3649 7.89L14.2649 6.9825C15.0074 6.2475 15.3674 5.535 15.3674 4.815C15.3749 4.0725 15.0149 3.3525 14.2649 2.61Z" fill="white"/>
<path d="M11.7072 8.64751C11.4897 8.54251 11.2798 8.43751 11.0773 8.31751C10.9123 8.22001 10.7548 8.11501 10.5973 8.00251C10.4698 7.92001 10.3197 7.80001 10.1772 7.68001C10.1622 7.67251 10.1097 7.62751 10.0497 7.56751C9.80225 7.35751 9.52475 7.08751 9.27725 6.78751C9.25475 6.77251 9.21725 6.72001 9.16475 6.65251C9.08975 6.56251 8.96225 6.41251 8.84975 6.24001C8.75975 6.12751 8.65475 5.96251 8.55725 5.79751C8.43725 5.59501 8.33225 5.39251 8.22725 5.18251C8.21744 5.16148 8.20782 5.14051 8.19839 5.11962C8.07773 4.85239 7.72845 4.77381 7.52112 4.98114L3.25475 9.24751C3.15725 9.34501 3.06725 9.53251 3.04475 9.66001L2.63975 12.5325C2.56475 13.0425 2.70725 13.5225 3.02225 13.845C3.29225 14.1075 3.66725 14.25 4.07225 14.25C4.16225 14.25 4.25225 14.2425 4.34225 14.2275L7.22225 13.8225C7.35725 13.8 7.54475 13.71 7.63475 13.6125L11.8954 9.35189C12.1041 9.14312 12.0255 8.78441 11.7543 8.66781C11.7387 8.66111 11.723 8.65435 11.7072 8.64751Z" fill="white"/>
</svg>
