<svg width="24" height="25" viewBox="0 0 24 25" fill="none" xmlns="http://www.w3.org/2000/svg">
<path d="M15.5799 12.6899C15.5799 14.6699 13.9799 16.2699 11.9999 16.2699C10.0199 16.2699 8.41992 14.6699 8.41992 12.6899C8.41992 10.7099 10.0199 9.10986 11.9999 9.10986C13.9799 9.10986 15.5799 10.7099 15.5799 12.6899Z" stroke="#010211" stroke-width="1.5" stroke-linecap="round" stroke-linejoin="round"/>
<path d="M11.9998 20.9602C15.5298 20.9602 18.8198 18.8802 21.1098 15.2802C22.0098 13.8702 22.0098 11.5002 21.1098 10.0902C18.8198 6.49016 15.5298 4.41016 11.9998 4.41016C8.46984 4.41016 5.17984 6.49016 2.88984 10.0902C1.98984 11.5002 1.98984 13.8702 2.88984 15.2802C5.17984 18.8802 8.46984 20.9602 11.9998 20.9602Z" stroke="#010211" stroke-width="1.5" stroke-linecap="round" stroke-linejoin="round"/>
</svg>
