<svg width="24" height="25" viewBox="0 0 24 25" fill="none" xmlns="http://www.w3.org/2000/svg">
<path d="M14.5299 10.1599L9.46992 15.2199C8.81992 14.5699 8.41992 13.6799 8.41992 12.6899C8.41992 10.7099 10.0199 9.10986 11.9999 9.10986C12.9899 9.10986 13.8799 9.50986 14.5299 10.1599Z" stroke="#010211" stroke-width="1.5" stroke-linecap="round" stroke-linejoin="round"/>
<path d="M17.8198 6.45992C16.0698 5.13992 14.0698 4.41992 11.9998 4.41992C8.46984 4.41992 5.17984 6.49992 2.88984 10.0999C1.98984 11.5099 1.98984 13.8799 2.88984 15.2899C3.67984 16.5299 4.59984 17.5999 5.59984 18.4599" stroke="#010211" stroke-width="1.5" stroke-linecap="round" stroke-linejoin="round"/>
<path d="M8.41992 20.2201C9.55992 20.7001 10.7699 20.9601 11.9999 20.9601C15.5299 20.9601 18.8199 18.8801 21.1099 15.2801C22.0099 13.8701 22.0099 11.5001 21.1099 10.0901C20.7799 9.57012 20.4199 9.08012 20.0499 8.62012" stroke="#010211" stroke-width="1.5" stroke-linecap="round" stroke-linejoin="round"/>
<path d="M15.5099 13.3901C15.2499 14.8001 14.0999 15.9501 12.6899 16.2101" stroke="#010211" stroke-width="1.5" stroke-linecap="round" stroke-linejoin="round"/>
<path d="M9.47 15.2197L2 22.6897" stroke="#010211" stroke-width="1.5" stroke-linecap="round" stroke-linejoin="round"/>
<path d="M21.9998 2.68994L14.5298 10.1599" stroke="#010211" stroke-width="1.5" stroke-linecap="round" stroke-linejoin="round"/>
</svg>
