<svg width="24" height="24" viewBox="0 0 24 24" fill="none" xmlns="http://www.w3.org/2000/svg">
<path d="M5.3999 2.1L18.5999 2.1C19.6999 2.1 20.5999 3 20.5999 4.1L20.5999 6.3C20.5999 7.1 20.0999 8.1 19.5999 8.6L15.2999 12.4C14.6999 12.9 14.2999 13.9 14.2999 14.7L14.2999 19C14.2999 19.6 13.8999 20.4 13.3999 20.7L11.9999 21.6C10.6999 22.4 8.8999 21.5 8.8999 19.9L8.8999 14.6C8.8999 13.9 8.4999 13 8.0999 12.5L4.2999 8.5C3.7999 8 3.3999 7.1 3.3999 6.5L3.3999 4.2C3.3999 3 4.2999 2.1 5.3999 2.1Z" stroke="#363636" stroke-width="1.5" stroke-miterlimit="10" stroke-linecap="round" stroke-linejoin="round"/>
<path d="M10.93 2.1L6 10" stroke="#363636" stroke-width="1.5" stroke-miterlimit="10" stroke-linecap="round" stroke-linejoin="round"/>
</svg>
