<svg width="25" height="24" viewBox="0 0 25 24" fill="none" xmlns="http://www.w3.org/2000/svg">
<path d="M21.58 8.01002L15.03 2.77002C13.75 1.75002 11.75 1.74002 10.48 2.76002L3.92999 8.01002C2.98999 8.76002 2.41999 10.26 2.61999 11.44L3.87999 18.98C4.16999 20.67 5.73999 22 7.44999 22H18.05C19.74 22 21.34 20.64 21.63 18.97L22.89 11.43C23.07 10.26 22.5 8.76002 21.58 8.01002ZM13.5 18C13.5 18.41 13.16 18.75 12.75 18.75C12.34 18.75 12 18.41 12 18V15C12 14.59 12.34 14.25 12.75 14.25C13.16 14.25 13.5 14.59 13.5 15V18Z" fill="#087C7C"/>
</svg>
