<svg width="18" height="18" viewBox="0 0 18 18" fill="none" xmlns="http://www.w3.org/2000/svg">
<path d="M5.60986 13.7625L7.93486 15.5625C8.23486 15.8625 8.90986 16.0125 9.35986 16.0125H12.2099C13.1099 16.0125 14.0849 15.3375 14.3099 14.4375L16.1099 8.96248C16.4849 7.91248 15.8099 7.01248 14.6849 7.01248H11.6849C11.2349 7.01248 10.8599 6.63748 10.9349 6.11248L11.3099 3.71248C11.4599 3.03748 11.0099 2.28748 10.3349 2.06248C9.73486 1.83748 8.98486 2.13748 8.68486 2.58748L5.60986 7.16248" fill="white"/>
<path d="M1.78516 13.7625V6.41255C1.78516 5.36255 2.23516 4.98755 3.28516 4.98755H4.03516C5.08516 4.98755 5.53516 5.36255 5.53516 6.41255V13.7625C5.53516 14.8125 5.08516 15.1875 4.03516 15.1875H3.28516C2.23516 15.1875 1.78516 14.8125 1.78516 13.7625Z" stroke="white" stroke-width="1.5" stroke-linecap="round" stroke-linejoin="round"/>
</svg>
