<svg width="18" height="18" viewBox="0 0 18 18" fill="none" xmlns="http://www.w3.org/2000/svg">
<path d="M9 1.5C4.86 1.5 1.5 4.61251 1.5 8.44501C1.5 10.62 2.57999 12.555 4.25999 13.83V15.2175C4.25999 15.795 4.87499 16.155 5.37749 15.87L6.77252 15.0825C7.47752 15.285 8.21999 15.39 8.99249 15.39C13.1325 15.39 16.4925 12.2775 16.4925 8.44501C16.5 4.61251 13.14 1.5 9 1.5ZM11.6325 7.83L9.75751 10.0725C9.63751 10.215 9.4425 10.245 9.285 10.155L8.5275 9.71251C8.445 9.66751 8.3475 9.6525 8.25 9.675L6.74249 10.0425C6.38999 10.125 6.13499 9.71249 6.36749 9.43499L8.27252 7.17C8.38502 7.035 8.58002 6.9975 8.73752 7.08L9.62251 7.545C9.70501 7.59 9.8025 7.5975 9.8925 7.575L11.2575 7.2225C11.6025 7.1325 11.865 7.5525 11.6325 7.83Z" fill="white"/>
</svg>
