<svg width="22" height="22" viewBox="0 0 22 22" fill="none" xmlns="http://www.w3.org/2000/svg">
<g clip-path="url(#clip0_220_6309)">
<path fill-rule="evenodd" clip-rule="evenodd" d="M0.524597 3.99147C0.524597 3.19856 1.17331 2.5498 1.96626 2.5498H2.62338C2.69344 2.5498 2.75061 2.60697 2.75061 2.67704V15.7612C2.75061 15.8313 2.69344 15.8884 2.62338 15.8884H1.96626C1.42994 15.8884 0.917151 16.0918 0.524597 16.4567V3.99147ZM15.8466 14.8126L19.248 8.92138L20.7934 9.81366L17.392 15.7049L15.8466 14.8126ZM19.5864 8.33509L21.1318 9.22733L21.4213 8.72595C21.533 8.53256 21.4663 8.28373 21.2729 8.17207L20.4298 7.68528C20.2364 7.57361 19.9876 7.64028 19.876 7.83367L19.5864 8.33509ZM16.9154 16.2114L15.6462 15.4786L15.5435 16.6942C15.5267 16.893 15.7503 17.0221 15.914 16.9082L16.9154 16.2114ZM0.524597 18.0086C0.524597 18.8016 1.17331 19.4503 1.96626 19.4503H19.6797V13.0997L17.7351 16.4679L16.3016 17.4652C16.0095 17.6685 15.6297 17.6844 15.3216 17.5065C15.013 17.3284 14.8374 16.9923 14.8674 16.6372L15.0143 14.897L19.2883 7.49447C19.3857 7.3258 19.5221 7.19318 19.6797 7.10145V5.33835H3.42918V16.4398C3.42918 16.5098 3.37201 16.567 3.30195 16.567H1.96626C1.17335 16.567 0.524597 17.2157 0.524597 18.0086ZM9.62047 6.56131C9.80393 6.42233 10.0627 6.41923 10.2533 6.55766L14.8142 9.87129C15.0528 10.0447 15.1062 10.3787 14.9331 10.6176C14.7599 10.8567 14.4253 10.9102 14.1864 10.7367L9.93939 7.65101L5.69239 10.7367C5.45353 10.9102 5.11882 10.8567 4.94566 10.6176C4.77258 10.3787 4.82602 10.0448 5.06462 9.87129L9.62047 6.56131ZM13.5706 11.128V15.1594C13.5706 15.4002 13.3742 15.5965 13.1334 15.5965H11.7217V12.4766C11.7217 11.9464 11.2891 11.5139 10.759 11.5139H9.11981C8.58963 11.5139 8.15708 11.9464 8.15708 12.4766V15.5965H6.7454C6.50459 15.5965 6.30827 15.4002 6.30827 15.1594V11.128L9.93944 8.48976L13.5706 11.128ZM11.0431 15.5965H8.83566V12.4766C8.83566 12.321 8.9642 12.1925 9.11981 12.1925H10.759C10.9145 12.1925 11.0431 12.321 11.0431 12.4766V15.5965ZM14.3996 16.6121C14.587 16.6121 14.7389 16.764 14.7389 16.9514C14.7389 17.1387 14.587 17.2907 14.3996 17.2907H14.04C13.8526 17.2907 13.7007 17.1387 13.7007 16.9514C13.7007 16.764 13.8526 16.6121 14.04 16.6121H14.3996ZM12.9795 16.6121C13.1669 16.6121 13.3188 16.764 13.3188 16.9514C13.3188 17.1387 13.1669 17.2907 12.9795 17.2907H12.6198C12.4325 17.2907 12.2806 17.1387 12.2806 16.9514C12.2806 16.764 12.4325 16.6121 12.6198 16.6121H12.9795ZM11.5594 16.6121C11.7468 16.6121 11.8987 16.764 11.8987 16.9514C11.8987 17.1387 11.7468 17.2907 11.5594 17.2907H11.1998C11.0124 17.2907 10.8605 17.1387 10.8605 16.9514C10.8605 16.764 11.0124 16.6121 11.1998 16.6121H11.5594ZM10.1393 16.6121C10.3267 16.6121 10.4786 16.764 10.4786 16.9514C10.4786 17.1387 10.3267 17.2907 10.1393 17.2907H9.77963C9.59226 17.2907 9.44035 17.1387 9.44035 16.9514C9.44035 16.764 9.59226 16.6121 9.77963 16.6121H10.1393ZM8.71924 16.6121C8.90661 16.6121 9.05852 16.764 9.05852 16.9514C9.05852 17.1387 8.90661 17.2907 8.71924 17.2907H8.35955C8.17218 17.2907 8.02027 17.1387 8.02027 16.9514C8.02027 16.764 8.17218 16.6121 8.35955 16.6121H8.71924ZM7.29912 16.6121C7.48649 16.6121 7.6384 16.764 7.6384 16.9514C7.6384 17.1387 7.48649 17.2907 7.29912 17.2907H6.93943C6.75206 17.2907 6.60014 17.1387 6.60014 16.9514C6.60014 16.764 6.75206 16.6121 6.93943 16.6121H7.29912ZM5.87903 16.6121C6.06641 16.6121 6.21832 16.764 6.21832 16.9514C6.21832 17.1387 6.06641 17.2907 5.87903 17.2907H5.51935C5.33198 17.2907 5.18006 17.1387 5.18006 16.9514C5.18006 16.764 5.33198 16.6121 5.51935 16.6121H5.87903Z" fill="#363636"/>
</g>
<defs>
<clipPath id="clip0_220_6309">
<rect width="21.7143" height="21.7143" fill="white" transform="translate(0.142883 0.142822)"/>
</clipPath>
</defs>
</svg>
