<svg width="25" height="24" viewBox="0 0 25 24" fill="none" xmlns="http://www.w3.org/2000/svg">
<path d="M12.25 2C9.63 2 7.5 4.13 7.5 6.75C7.5 9.32 9.51 11.4 12.13 11.49C12.21 11.48 12.29 11.48 12.35 11.49C12.37 11.49 12.38 11.49 12.4 11.49C12.41 11.49 12.41 11.49 12.42 11.49C14.98 11.4 16.99 9.32 17 6.75C17 4.13 14.87 2 12.25 2Z" fill="#087C7C"/>
<path d="M17.33 14.15C14.54 12.29 9.99002 12.29 7.18002 14.15C5.91002 15 5.21002 16.15 5.21002 17.38C5.21002 18.61 5.91002 19.75 7.17002 20.59C8.57002 21.53 10.41 22 12.25 22C14.09 22 15.93 21.53 17.33 20.59C18.59 19.74 19.29 18.6 19.29 17.36C19.28 16.13 18.59 14.99 17.33 14.15Z" fill="#087C7C"/>
</svg>
