<svg width="25" height="24" viewBox="0 0 25 24" fill="none" xmlns="http://www.w3.org/2000/svg">
<path d="M15.75 7.06997C15.75 6.39997 15.42 5.77997 14.86 5.40997L10.86 2.73997C10.19 2.28997 9.31 2.28997 8.64 2.73997L4.64 5.40997C4.09 5.77997 3.75 6.39997 3.75 7.06997V12.75C3.75 13.03 3.97 13.25 4.25 13.25H15.25C15.53 13.25 15.75 13.03 15.75 12.75V7.06997ZM9.75 10.75C8.79 10.75 8 9.95997 8 8.99997C8 8.03997 8.79 7.24997 9.75 7.24997C10.71 7.24997 11.5 8.03997 11.5 8.99997C11.5 9.95997 10.71 10.75 9.75 10.75Z" fill="#087C7C"/>
<path d="M22.75 21.25H21.48V18.25C22.43 17.94 23.12 17.05 23.12 16V14C23.12 12.69 22.05 11.62 20.74 11.62C19.43 11.62 18.36 12.69 18.36 14V16C18.36 17.04 19.04 17.92 19.97 18.24V21.25H15.75V15.25C15.75 14.97 15.53 14.75 15.25 14.75H4.25C3.97 14.75 3.75 14.97 3.75 15.25V21.25H2.75C2.34 21.25 2 21.59 2 22C2 22.41 2.34 22.75 2.75 22.75H20.68C20.7 22.75 20.71 22.76 20.73 22.76C20.75 22.76 20.76 22.75 20.78 22.75H22.75C23.16 22.75 23.5 22.41 23.5 22C23.5 21.59 23.16 21.25 22.75 21.25ZM9 18.25C9 17.84 9.34 17.5 9.75 17.5C10.16 17.5 10.5 17.84 10.5 18.25V21.25H9V18.25Z" fill="#087C7C"/>
</svg>
