<svg width="21" height="20" viewBox="0 0 21 20" fill="none" xmlns="http://www.w3.org/2000/svg">
<path d="M18 5.62499H16.125C15.9523 5.62499 15.8125 5.76491 15.8125 5.93749V7.81249C15.8125 7.98507 15.9523 8.12499 16.125 8.12499H18C18.1727 8.12499 18.3125 7.98507 18.3125 7.81249V5.93749C18.3125 5.76491 18.1727 5.62499 18 5.62499ZM17.6875 7.49999H16.4375V6.24999H17.6875V7.49999ZM14.875 5.62499H13C12.8273 5.62499 12.6875 5.76491 12.6875 5.93749V7.81249C12.6875 7.98507 12.8273 8.12499 13 8.12499H14.875C15.0477 8.12499 15.1875 7.98507 15.1875 7.81249V5.93749C15.1875 5.76491 15.0477 5.62499 14.875 5.62499ZM14.5625 7.49999H13.3125V6.24999H14.5625V7.49999ZM18 8.74999H16.125C15.9523 8.74999 15.8125 8.88991 15.8125 9.06249V10.9375C15.8125 11.1102 15.9523 11.25 16.125 11.25H18C18.1727 11.25 18.3125 11.1102 18.3125 10.9375V9.06249C18.3125 8.88991 18.1727 8.74999 18 8.74999ZM17.6875 10.625H16.4375V9.37499H17.6875V10.625ZM14.875 8.74999H13C12.8273 8.74999 12.6875 8.88991 12.6875 9.06249V10.9375C12.6875 11.1102 12.8273 11.25 13 11.25H14.875C15.0477 11.25 15.1875 11.1102 15.1875 10.9375V9.06249C15.1875 8.88991 15.0477 8.74999 14.875 8.74999ZM14.5625 10.625H13.3125V9.37499H14.5625V10.625ZM18 11.875H16.125C15.9523 11.875 15.8125 12.0148 15.8125 12.1875V14.0625C15.8125 14.2352 15.9523 14.375 16.125 14.375H18C18.1727 14.375 18.3125 14.2352 18.3125 14.0625V12.1875C18.3125 12.0148 18.1727 11.875 18 11.875ZM17.6875 13.75H16.4375V12.5H17.6875V13.75ZM14.875 11.875H13C12.8273 11.875 12.6875 12.0148 12.6875 12.1875V14.0625C12.6875 14.2352 12.8273 14.375 13 14.375H14.875C15.0477 14.375 15.1875 14.2352 15.1875 14.0625V12.1875C15.1875 12.0148 15.0477 11.875 14.875 11.875ZM14.5625 13.75H13.3125V12.5H14.5625V13.75ZM19.6934 5.02868L11.5684 1.27868C11.4717 1.23412 11.3588 1.24206 11.269 1.29928C11.1793 1.35665 11.125 1.45598 11.125 1.56249V6.28665L6.39874 6.87743C6.24234 6.89696 6.125 7.02987 6.125 7.18749V12.5C6.125 12.51 6.12979 12.5185 6.1307 12.5283C5.7412 12.9234 5.5 13.4652 5.5 14.0625C5.5 14.6598 5.7412 15.2015 6.1307 15.5967C6.12979 15.6065 6.125 15.615 6.125 15.625V18.125H3.3125V17.3547L4.11084 16.8225C4.25443 16.7267 4.29318 16.5329 4.19751 16.3891C4.10153 16.2454 3.90775 16.2067 3.76416 16.3025L3.3125 16.6035V16.2218C4.19785 16.0723 4.875 15.3022 4.875 14.375C4.875 13.3411 4.03394 12.5 3 12.5C1.96606 12.5 1.125 13.3411 1.125 14.375C1.125 15.3022 1.80215 16.0723 2.6875 16.2218V16.6035L2.23584 16.3025C2.0918 16.2067 1.89816 16.2454 1.80249 16.3891C1.70682 16.5329 1.74557 16.7267 1.88916 16.8225L2.6875 17.3547V18.125H1.4375C1.26492 18.125 1.125 18.2648 1.125 18.4375C1.125 18.6102 1.26492 18.75 1.4375 18.75H6.4375H11.4375H13.625H17.375H19.5625C19.7352 18.75 19.875 18.6102 19.875 18.4375V5.31249C19.875 5.19057 19.8042 5.07979 19.6934 5.02868ZM1.75 14.375C1.75 13.6856 2.31076 13.125 3 13.125C3.68924 13.125 4.25 13.6856 4.25 14.375C4.25 14.9558 3.85009 15.4409 3.3125 15.5806V15.3125C3.3125 15.1398 3.17258 15 3 15C2.82742 15 2.6875 15.1398 2.6875 15.3125V15.5806C2.14991 15.4409 1.75 14.9558 1.75 14.375ZM11.125 9.68749H8.625V8.43749H11.125V9.68749ZM11.125 6.91645V7.81249H8.3125C8.13992 7.81249 8 7.95241 8 8.12499V9.99999C8 10.1726 8.13992 10.3125 8.3125 10.3125H11.125V18.125H8V16.225C9.05831 16.0726 9.875 15.1622 9.875 14.0625C9.875 12.8564 8.89371 11.875 7.6875 11.875C7.35171 11.875 7.03461 11.9533 6.75 12.0891V7.46337L11.125 6.91645ZM7.6875 12.5C8.54901 12.5 9.25 13.201 9.25 14.0625C9.25 14.817 8.71228 15.4482 8 15.5934V15.3125C8 15.1398 7.86008 15 7.6875 15C7.51492 15 7.375 15.1398 7.375 15.3125V15.5934C6.66272 15.4482 6.125 14.817 6.125 14.0625C6.125 13.201 6.82599 12.5 7.6875 12.5ZM6.75 16.0359C6.94445 16.1287 7.15424 16.1932 7.375 16.225V18.125H6.75V16.0359ZM13.9375 18.125V15.625H15.1875V18.125H13.9375ZM15.8125 18.125V15.625H17.0625V18.125H15.8125ZM17.6875 18.125V15.3125C17.6875 15.1398 17.5477 15 17.375 15H13.625C13.4523 15 13.3125 15.1398 13.3125 15.3125V18.125H11.75V9.99999V8.12499V2.05092L19.25 5.51238V18.125H17.6875Z" fill="white"/>
</svg>
