<svg width="20" height="19" viewBox="0 0 20 19" fill="none" xmlns="http://www.w3.org/2000/svg">
<g clip-path="url(#clip0_2180_7235)">
<path fill-rule="evenodd" clip-rule="evenodd" d="M16.6428 12.0691C15.4933 12.0691 14.4778 12.6482 13.8723 13.5304L8.35064 11.0243C8.4653 10.6388 8.52672 10.2305 8.52672 9.80815C8.52672 9.38579 8.4653 8.97747 8.35064 8.59197L13.8723 6.0859C14.4778 6.96805 15.4933 7.54719 16.6428 7.54719C18.4954 7.54719 20 6.04319 20 4.19055C20 2.33791 18.4954 0.833332 16.6428 0.833332C14.7901 0.833332 13.2861 2.33791 13.2861 4.19055C13.2861 4.47953 13.323 4.76033 13.3914 5.02766L7.8692 7.53373C7.1134 6.33861 5.78022 5.54479 4.26336 5.54479C1.90997 5.54479 0 7.45534 0 9.80815C0 12.161 1.90997 14.0715 4.26336 14.0715C5.78022 14.0715 7.1134 13.2777 7.8692 12.0826L13.3914 14.5886C13.323 14.856 13.2861 15.1368 13.2861 15.4257C13.2861 17.2784 14.7901 18.783 16.6428 18.783C18.4954 18.783 20 17.2784 20 15.4257C20 13.5731 18.4954 12.0691 16.6428 12.0691ZM16.6428 1.99569C17.8537 1.99569 18.8371 2.97905 18.8371 4.19055C18.8371 5.40205 17.8537 6.38482 16.6428 6.38482C15.4319 6.38482 14.4485 5.40147 14.4485 4.19055C14.4485 2.97964 15.4319 1.99569 16.6428 1.99569ZM4.26336 12.9091C2.5517 12.9091 1.16236 11.5198 1.16236 9.80815C1.16236 8.09649 2.5517 6.70715 4.26336 6.70715C5.97502 6.70715 7.36436 8.09649 7.36436 9.80815C7.36436 11.5198 5.97502 12.9091 4.26336 12.9091ZM16.6428 17.6206C15.4319 17.6206 14.4485 16.6372 14.4485 15.4257C14.4485 14.2142 15.4319 13.2315 16.6428 13.2315C17.8537 13.2315 18.8371 14.2148 18.8371 15.4257C18.8371 16.6367 17.8537 17.6206 16.6428 17.6206Z" fill="#363636"/>
</g>
<defs>
<clipPath id="clip0_2180_7235">
<rect width="20" height="17.9496" fill="white" transform="translate(0 0.833332)"/>
</clipPath>
</defs>
</svg>
