<svg width="20" height="20" viewBox="0 0 20 20" fill="none" xmlns="http://www.w3.org/2000/svg">
<g clip-path="url(#clip0_129_14518)">
<path d="M13.125 17.8125H9.375C9.25 17.8125 9.125 17.7188 9.09375 17.625C9.0625 17.5 9.09375 17.375 9.1875 17.2813L12.9375 13.8438C13.0313 13.75 13.1563 13.75 13.2813 13.7813C13.4063 13.8438 13.4688 13.9375 13.4688 14.0625V17.5C13.4375 17.6875 13.3125 17.8125 13.125 17.8125ZM10.1875 17.1875H12.8125V14.7813L10.1875 17.1875Z" fill="white"/>
<path d="M17.8125 1.24999H16.875C16.6875 1.24999 16.5625 1.37499 16.5625 1.56249V4.37499H14.8125L15.625 3.65624C15.8125 3.49999 15.9375 3.24999 15.9375 2.99999C15.9375 2.74999 15.875 2.49999 15.6875 2.31249L14.4375 0.906236C14.0938 0.531236 13.5 0.499986 13.125 0.843736L10.7812 2.90624L9.1875 4.37499H3.4375V1.56249C3.4375 1.37499 3.3125 1.24999 3.125 1.24999H2.1875C1.3125 1.24999 0.625 1.93749 0.625 2.81249V6.24999V13.125V15C0.625 16.2187 1.59375 17.1875 2.8125 17.1875H6.40625L4.5 18.8125C4.40625 18.9062 4.375 19.0312 4.40625 19.1562C4.4375 19.2812 4.5625 19.375 4.6875 19.375H15.625C15.8125 19.375 15.9375 19.25 15.9375 19.0625V17.1875H17.1875C17.7812 17.1875 18.3125 16.9687 18.7188 16.5312C19.125 16.125 19.375 15.5625 19.375 14.9687V13.0937V6.24999V2.81249C19.375 1.93749 18.6875 1.24999 17.8125 1.24999ZM13.0938 5.06249L11.4375 3.18749L12.375 2.34374L14.0312 4.21874L13.0938 5.06249ZM7.28125 10.25L6.65625 9.56249L12.0312 4.78124L12.6562 5.46874L7.28125 10.25ZM10.9688 3.59374L11.5938 4.28124L6.21875 9.09374L5.59375 8.40624L10.9688 3.59374ZM5.3125 8.99999L6.625 10.5L4.78125 10.8125L5.3125 8.99999ZM13.5312 1.31249C13.6562 1.18749 13.875 1.21874 13.9688 1.34374L15.2188 2.74999C15.2812 2.81249 15.3125 2.87499 15.3125 2.96874C15.3125 3.06249 15.2812 3.12499 15.2188 3.18749L14.5312 3.81249L12.875 1.93749L13.5312 1.31249ZM1.25 13.125V6.24999V2.81249C1.25 2.28124 1.65625 1.87499 2.1875 1.87499H2.8125V12.8125C2.21875 12.8125 1.6875 13.0312 1.28125 13.4687C1.28125 13.4687 1.28125 13.4687 1.25 13.5V13.125ZM5.53125 18.75L15.3125 10.375V11.25H15C14.8125 11.25 14.6875 11.375 14.6875 11.5625C14.6875 11.75 14.8125 11.875 15 11.875H15.3125V12.5H15C14.8125 12.5 14.6875 12.625 14.6875 12.8125C14.6875 13 14.8125 13.125 15 13.125H15.3125V13.75H15C14.8125 13.75 14.6875 13.875 14.6875 14.0625C14.6875 14.25 14.8125 14.375 15 14.375H15.3125V15H15C14.8125 15 14.6875 15.125 14.6875 15.3125C14.6875 15.5 14.8125 15.625 15 15.625H15.3125V16.25H15C14.8125 16.25 14.6875 16.375 14.6875 16.5625C14.6875 16.75 14.8125 16.875 15 16.875H15.3125V17.5H15C14.8125 17.5 14.6875 17.625 14.6875 17.8125C14.6875 18 14.8125 18.125 15 18.125H15.3125V18.75H5.53125ZM18.2812 16.0937C18 16.4062 17.5938 16.5625 17.1875 16.5625H15.9375V9.68749C15.9375 9.56249 15.875 9.46874 15.75 9.40624C15.625 9.34374 15.5 9.37499 15.4062 9.43749L7.125 16.5625H2.8125C1.9375 16.5625 1.25 15.875 1.25 15C1.25 14.5937 1.40625 14.1875 1.71875 13.9062C2 13.5937 2.40625 13.4375 2.8125 13.4375H3.125C3.3125 13.4375 3.4375 13.3125 3.4375 13.125V4.99999H8.46875L4.96875 8.12499C4.9375 8.15624 4.90625 8.18749 4.90625 8.21874V8.24999V8.28124L4.0625 11.125C4.03125 11.2187 4.0625 11.3437 4.125 11.4062C4.1875 11.4687 4.28125 11.5 4.34375 11.5H4.40625L7.3125 11H7.34375H7.375C7.40625 11 7.4375 10.9687 7.46875 10.9375L13.3125 5.74999L14.1562 4.99999H16.5625V13.125C16.5625 13.3125 16.6875 13.4375 16.875 13.4375H17.1875C18.0625 13.4375 18.75 14.125 18.75 15C18.75 15.4062 18.5938 15.8125 18.2812 16.0937ZM17.1875 12.8125V1.87499H17.8125C18.3438 1.87499 18.75 2.28124 18.75 2.81249V6.24999V13.125V13.4687C18.3438 13.0625 17.8125 12.8125 17.1875 12.8125Z" fill="white"/>
</g>
<defs>
<clipPath id="clip0_129_14518">
<rect width="20" height="20" fill="white"/>
</clipPath>
</defs>
</svg>
