<svg width="18" height="19" viewBox="0 0 18 19" fill="none" xmlns="http://www.w3.org/2000/svg">
<path d="M16.1702 8.555L15.1502 7.37C14.9552 7.145 14.7977 6.725 14.7977 6.425V5.15C14.7977 4.355 14.1452 3.7025 13.3502 3.7025H12.0752C11.7827 3.7025 11.3552 3.545 11.1302 3.35L9.94516 2.33C9.42766 1.8875 8.58016 1.8875 8.05516 2.33L6.87766 3.3575C6.65266 3.545 6.22516 3.7025 5.93266 3.7025H4.63516C3.84016 3.7025 3.18766 4.355 3.18766 5.15V6.4325C3.18766 6.725 3.03016 7.145 2.84266 7.37L1.83016 8.5625C1.39516 9.08 1.39516 9.92 1.83016 10.4375L2.84266 11.63C3.03016 11.855 3.18766 12.275 3.18766 12.5675V13.85C3.18766 14.645 3.84016 15.2975 4.63516 15.2975H5.93266C6.22516 15.2975 6.65266 15.455 6.87766 15.65L8.06266 16.67C8.58016 17.1125 9.42766 17.1125 9.95266 16.67L11.1377 15.65C11.3627 15.455 11.7827 15.2975 12.0827 15.2975H13.3577C14.1527 15.2975 14.8052 14.645 14.8052 13.85V12.575C14.8052 12.2825 14.9627 11.855 15.1577 11.63L16.1777 10.445C16.6127 9.9275 16.6127 9.0725 16.1702 8.555ZM12.1202 8.0825L8.49766 11.705C8.39266 11.81 8.25016 11.87 8.10016 11.87C7.95016 11.87 7.80766 11.81 7.70266 11.705L5.88766 9.89C5.67016 9.6725 5.67016 9.3125 5.88766 9.095C6.10516 8.8775 6.46516 8.8775 6.68266 9.095L8.10016 10.5125L11.3252 7.2875C11.5427 7.07 11.9027 7.07 12.1202 7.2875C12.3377 7.505 12.3377 7.865 12.1202 8.0825Z" fill="white"/>
</svg>
